<svg width="212" height="202" viewBox="0 0 212 202" fill="none" xmlns="http://www.w3.org/2000/svg">
<path d="M95.2855 84.7623C99.5099 84.7623 103.436 82.1585 106.72 86.09C111.499 91.8118 113.4 99.6308 106.4 104.433C102.468 107.13 96.0707 102.829 93.0676 100.351C88.495 96.5784 88.1882 91.3781 88.1882 85.8441C88.1882 83.1624 89.3706 81.1119 90.4061 78.7874C90.9692 77.5231 93.5324 77.3585 94.6201 76.7958C100.598 73.7032 109.195 74.479 115.247 76.8941C122.17 79.6572 127.494 84.9311 129.663 92.0895C130.668 95.4059 131.159 98.9872 130.723 102.466C130.273 106.056 126.871 108.126 124.759 110.678C122.194 113.778 119.425 115.975 116.232 118.399C113.357 120.581 108.134 120.653 104.699 120.956C100.835 121.297 98.3877 121.72 94.7433 120.071C91.0624 118.405 85.6231 116.445 82.8898 113.309C78.1205 107.837 76.2114 100.07 76.2114 92.9255C76.2114 87.2147 76.017 82.6515 79.0947 77.5334C80.2781 75.5656 81.5403 73.5045 82.8405 71.5585C84.5426 69.0112 87.5487 67.8797 89.9625 66.1738C92.6866 64.2486 96.1174 63.6791 99.3763 63.0757C105.078 62.0199 110.573 61.7479 116.356 61.7479C122.847 61.7479 132.157 60.6655 137.327 65.6328C142.304 70.4149 145.866 77.0855 147.85 83.6312C149.879 90.328 150.261 97.1611 149.821 104.187C149.688 106.315 148.562 108.8 147.603 110.653C146.447 112.89 145.324 115.786 143.537 117.612C140.518 120.696 137.74 123.681 133.976 125.923C130.833 127.794 127.402 128.907 124.118 130.545C119.655 132.771 114.409 133.969 109.603 135.168C104.17 136.523 97.8305 135.659 92.279 135.659C88.3279 135.659 83.6495 136.171 80.2037 133.791C77.2648 131.761 74.4033 129.429 71.8742 126.906C67.5864 122.628 65.5819 115.674 64.013 110.039C63.2195 107.189 63.3904 104.037 63.0765 101.113C62.6127 96.794 61.5733 92.4246 61.5733 88.1062C61.5733 84.7605 61.5264 81.7949 62.4604 78.6153C63.435 75.2978 62.9297 69.716 65.393 66.9852C67.1597 65.0266 67.7041 61.7849 69.7795 60.1743C70.8815 59.3192 72.0597 58.566 73.1557 57.7155C76.8554 54.8444 81.3309 53.2033 85.5267 51.2243C91.3498 48.4778 97.9923 48.0165 104.157 46.4788C110.351 44.9338 116.342 44.9298 122.689 44.9298C125.886 44.9298 128.757 44.5885 131.659 46.0362C134.527 47.4668 137.036 49.7423 139.299 51.9128C140.931 53.4786 142.718 54.6359 144.301 56.2157C145.458 57.3693 147.172 59.7499 148.515 60.4202C148.685 61.2653 149.54 61.8849 150.117 62.461C151.706 64.0466 152.974 65.7608 154.183 67.6491C156.215 70.8201 157.64 74.2152 158.816 77.7793C161.252 85.1598 162.143 91.8355 161.798 99.5888C161.531 105.588 159.435 111.821 157.609 117.489C156.47 121.023 155.342 126.39 152.606 129.119C149.881 131.838 147.019 134.425 144.326 137.184C140.094 141.519 136.859 146.349 131.881 149.97C122.343 156.906 109.648 156.983 98.3905 156.903C88.6948 156.835 81.0413 152.605 73.131 147.412C65.7668 142.578 59.911 136.71 55.7081 128.922C49.5525 117.516 44.7142 106.036 42.721 93.2206C41.8731 87.7683 41.6298 81.8767 42.0556 76.3532C42.5258 70.2552 45.0356 63.7552 46.935 57.9614C47.921 54.9539 49.5478 52.4862 51.3462 49.8474C55.2103 44.1776 61.1338 41.1435 66.5512 37.3075C74.0425 32.0031 82.323 27.9211 91.3179 25.6774C102.404 22.9121 113.171 22.3581 124.562 22.3581M124.589 22.1744C128.183 22.1744 131.687 22.1441 135.167 23.2049C140.3 24.7698 145.026 27.3682 149.911 29.53C156.137 32.2855 162.138 35.973 166.97 40.7943C173.006 46.8165 176.394 54.9557 178.83 62.9675C181.12 70.4998 182.933 78.0528 184.528 85.7805C186.016 92.9907 186.482 100.452 186.113 107.812C185.963 110.796 184.32 114.201 183.406 117.015M183.887 116.198C183.887 118.109 183.208 120.252 182.355 121.954C179.872 126.911 176.824 131.571 174.342 136.523C169.715 145.757 163.101 153.372 156.215 161.006C153.132 164.423 149.565 167.401 146.04 170.342L146.029 170.352C142.888 172.973 140.93 173.878 137.197 175.255C131.345 177.414 125.962 180.025 119.852 181.438C115.168 182.522 110.6 182.398 105.82 182.398C89.8027 182.398 74.2866 176.92 60.9641 168.166C53.9 163.525 47.5113 157.478 41.7324 151.359C34.8217 144.041 29.8912 136.147 25.8663 127C24.0246 122.815 22.5882 118.222 21.1296 113.888C19.2578 108.326 17.7589 102.339 17.0339 96.5117C16.4706 91.9837 16.8915 87.1743 16.8915 82.6179C16.8915 76.7932 17.2932 71.1388 18.4229 65.4194C20.4845 54.9824 23.0937 44.3226 28.1812 34.8956C31.6815 28.4096 36.3953 22.578 41.59 17.395C45.9318 13.063 52.4931 10.3628 58.2575 8.58258C65.7119 6.28045 73.3202 4.57864 80.9259 2.98596C88.5582 1.38774 96.9555 1.06712 104.716 1.06712C114.567 1.06712 124.473 0.557583 134.205 2.34635C142.031 3.78477 150.762 5.00599 157.764 9.06229C165.84 13.7411 173.625 18.3446 180.806 24.3953C183.825 26.9391 186.351 30.1428 188.788 33.2348L189.033 33.5453C192.469 37.9021 195.762 42.1573 198.311 47.1016C203.787 57.7256 206.359 68.6792 208.247 80.4503C210.173 92.4583 210.57 104.447 210.491 116.589C210.429 126.099 207.254 135.678 202.228 143.701C199.241 148.47 194.839 152.417 191.473 156.92C189.153 160.022 186.355 162.715 183.887 165.697C179.18 171.381 173.383 175.731 166.56 178.418C160.485 180.811 154.786 184.568 148.842 187.319C143.583 189.754 138.417 192.492 133.065 194.71C123.641 198.616 113.104 200.585 102.953 200.929C98.5411 201.078 94.1011 200.946 89.6871 200.946C85.2897 200.946 81.8532 199.824 77.6494 198.868C70.0914 197.148 63.2675 194.92 56.2453 191.601C52.2418 189.709 48.5577 187.389 45.098 184.636C42.1003 182.252 39.931 178.628 37.4053 175.753C34.8409 172.834 32.4467 169.813 29.7126 167.047C27.2492 164.554 24.7838 161.776 22.9993 158.75C20.5901 154.663 18.1497 150.425 15.9299 146.242C13.5852 141.823 12.3088 136.683 9.51932 132.508M9.8249 132.768C9.73523 131.427 9.13741 130.159 8.59174 128.949C7.8201 127.238 7.58258 125.072 7.01543 123.268C5.88024 119.656 5.06147 116.046 4.2703 112.333C3.93921 110.779 3.85689 109.166 3.63763 107.594C3.32657 105.363 2.68327 103.102 2.68327 100.843C2.68327 95.2595 1.52517 89.726 1.52517 84.1521V57.8646C1.52517 55.7806 1.39166 53.6875 1.73963 51.627C2.63834 46.3054 3.74857 41.0211 4.6885 35.7069C4.81402 34.9972 5.01895 34.4034 5.25683 33.7168C6.73078 29.4625 8.14844 25.6438 10.1393 21.5916C10.4966 20.8643 11.6597 19.3457 12.0948 18.665C12.4999 18.0312 13.507 17.1475 14.2675 16.4972" stroke="#FA7047" stroke-width="2" stroke-linecap="round"/>
</svg>
