<svg width="150" height="32" viewBox="0 0 150 32" fill="none" xmlns="http://www.w3.org/2000/svg">
<path d="M5.44702 21.2855L7.07207 24.419L10.2223 22.5596V18.6234L5.44702 21.2855Z" fill="#FA7047"/>
<path d="M18.4474 21.4603C17.9942 23.6378 17.2173 25.3038 16.1188 26.4584C15.0355 27.613 13.3953 28.1892 11.2005 28.1892C9.15034 28.1892 7.46055 27.4943 6.12684 26.1066C4.8104 24.719 4.15002 22.9278 4.15002 20.7373C4.15002 18.5468 4.80824 16.7621 6.12684 15.3895C7.27711 14.1918 8.53899 13.5 10.2223 13.336V9.51733C8.5433 9.62956 7.12604 10.1108 5.66501 10.9158C3.96659 11.8502 2.59835 13.1883 1.55815 14.9277C0.520102 16.652 0 18.59 0 20.7373C0 22.8846 0.520102 24.8291 1.55815 26.5685C2.59835 28.2928 3.96659 29.6222 5.66501 30.5566C7.36343 31.4911 9.20861 31.9594 11.1984 31.9594C14.2737 31.9594 16.8569 31.0163 18.9503 29.1323C21.0587 27.2332 22.2219 24.8442 22.4421 21.9653L18.4453 21.4603H18.4474Z" fill="#FA7047"/>
<path d="M11.5149 9.51733V13.2773C12.5788 13.2924 13.3005 13.4839 13.9673 13.7882C14.6709 14.1098 15.3874 14.6363 16.119 15.3658L11.5149 17.9772V21.9721L21.6545 16.3542C19.4705 11.8481 16.1872 9.57129 11.5149 9.51733Z" fill="white"/>
<path d="M41.7517 0H45.7132V20.1155C45.7132 23.6515 44.6935 26.5199 42.6541 28.7208C40.6147 30.9069 37.9957 32 34.7971 32C32.523 32 30.5275 31.4571 28.8109 30.3714C27.0942 29.2857 25.7958 27.8625 24.9154 26.1018C24.0498 24.3265 23.6169 22.3604 23.6169 20.2036C23.6169 18.7364 23.8957 17.3352 24.4533 16C25.0255 14.6648 25.7811 13.5204 26.7201 12.5667C27.6738 11.613 28.7889 10.8574 30.0654 10.2999C31.3418 9.74232 32.6623 9.46355 34.0268 9.46355C36.3157 9.46355 38.3625 9.97708 40.1672 11.0041V15.1637C39.3895 14.6355 38.4945 14.188 37.4821 13.8212C36.4844 13.4544 35.5601 13.271 34.7091 13.271C32.567 13.271 30.843 13.9532 29.5372 15.3177C28.2313 16.6676 27.5784 18.4576 27.5784 20.6878C27.5784 22.9033 28.246 24.7153 29.5812 26.1238C30.931 27.5177 32.6697 28.2146 34.7971 28.2146C36.8072 28.2146 38.4652 27.459 39.771 25.9477C41.0915 24.4218 41.7517 22.2357 41.7517 19.3893V0Z" fill="#FA7047"/>
<path d="M108.45 31.9739V28.1885H119.543C121.259 28.1885 122.118 27.4989 122.118 26.1197C122.118 25.5915 121.868 25.1293 121.369 24.7332C120.87 24.3224 120.218 23.9849 119.411 23.7208C118.604 23.442 117.716 23.1706 116.748 22.9065C115.779 22.6424 114.803 22.3343 113.82 21.9822C112.852 21.63 111.964 21.2192 111.157 20.7497C110.35 20.2802 109.698 19.6566 109.199 18.879C108.7 18.1014 108.45 17.2064 108.45 16.194C108.45 14.2866 109.089 12.8341 110.365 11.8363C111.642 10.8386 113.468 10.3398 115.845 10.3398H125.177V14.1252H115.163C114.209 14.1252 113.549 14.2719 113.182 14.5654C112.83 14.8441 112.639 15.3283 112.61 16.0179C112.61 16.5168 112.859 16.9569 113.358 17.3384C113.857 17.7052 114.503 18.0207 115.295 18.2848C116.102 18.5342 116.99 18.791 117.958 19.0551C118.926 19.3045 119.895 19.6126 120.863 19.9794C121.846 20.3315 122.734 20.7497 123.526 21.2339C124.333 21.7181 124.986 22.3636 125.485 23.1706C125.998 23.9629 126.255 24.8872 126.255 25.9436C126.255 27.9097 125.639 29.4063 124.406 30.4333C123.174 31.4604 121.553 31.9739 119.543 31.9739H108.45Z" fill="#FA7047"/>
<path d="M106.838 31.9078H102.876V9.8698H106.838V31.9078ZM103.096 7.12646C102.671 6.65695 102.458 6.09941 102.458 5.45383C102.458 4.80826 102.671 4.25071 103.096 3.7812C103.536 3.29702 104.123 3.05493 104.857 3.05493C105.591 3.05493 106.17 3.29702 106.596 3.7812C107.021 4.25071 107.234 4.80826 107.234 5.45383C107.234 6.09941 107.021 6.65695 106.596 7.12646C106.17 7.59597 105.591 7.83072 104.857 7.83072C104.123 7.83072 103.536 7.59597 103.096 7.12646Z" fill="#FA7047"/>
<path d="M90.5908 31.9661V10.332H94.3762V12.8189H94.4643C95.1245 11.7772 95.9242 11.0289 96.8632 10.5741C97.8169 10.1046 98.9686 9.86981 100.318 9.86981H101.221V13.6772H100.649C96.5844 13.6772 94.5523 16.4063 94.5523 21.8643V31.9661H90.5908Z" fill="#FA7047"/>
<path d="M88.3215 16.2664L73.708 24.3654L72.0794 21.2182L82.7754 15.276C82.0418 14.5424 81.3229 14.0142 80.6186 13.6914C79.9143 13.3686 78.99 13.2072 77.8455 13.2072C75.7914 13.2072 74.0968 13.9041 72.7616 15.298C71.4411 16.6772 70.7809 18.4672 70.7809 20.668C70.7809 22.8688 71.4411 24.6662 72.7616 26.06C74.0968 27.4539 75.7914 28.1508 77.8455 28.1508C80.0464 28.1508 81.6897 27.5713 82.7754 26.4122C83.8758 25.2531 84.6534 23.5804 85.1083 21.3943L89.1138 21.9005C88.8937 24.7909 87.7273 27.1898 85.6145 29.0972C83.5163 30.9899 80.9267 31.9362 77.8455 31.9362C75.8501 31.9362 74.0014 31.4667 72.2995 30.5277C70.5975 29.5887 69.2256 28.2535 68.1839 26.5222C67.1422 24.7762 66.6213 22.8248 66.6213 20.668C66.6213 18.5112 67.1422 16.5671 68.1839 14.8358C69.2256 13.0898 70.5975 11.7473 72.2995 10.8083C74.0014 9.86929 75.8501 9.39978 77.8455 9.39978C82.614 9.39978 86.106 11.6886 88.3215 16.2664Z" fill="#FA7047"/>
<path d="M148.833 16.2664L134.219 24.3654L132.591 21.2182L143.287 15.276C142.553 14.5424 141.834 14.0142 141.13 13.6914C140.426 13.3686 139.501 13.2072 138.357 13.2072C136.303 13.2072 134.608 13.9041 133.273 15.298C131.952 16.6772 131.292 18.4672 131.292 20.668C131.292 22.8688 131.952 24.6662 133.273 26.06C134.608 27.4539 136.303 28.1508 138.357 28.1508C140.558 28.1508 142.201 27.5713 143.287 26.4122C144.387 25.2531 145.165 23.5804 145.62 21.3943L149.625 21.9005C149.405 24.7909 148.238 27.1898 146.126 29.0972C144.028 30.9899 141.438 31.9362 138.357 31.9362C136.361 31.9362 134.513 31.4667 132.811 30.5277C131.109 29.5887 129.737 28.2535 128.695 26.5222C127.653 24.7762 127.133 22.8248 127.133 20.668C127.133 18.5112 127.653 16.5671 128.695 14.8358C129.737 13.0898 131.109 11.7473 132.811 10.8083C134.513 9.86929 136.361 9.39978 138.357 9.39978C143.125 9.39978 146.617 11.6886 148.833 16.2664Z" fill="#FA7047"/>
<path d="M64.019 9.86981H68.3547L60.7838 29.7433C60.4464 30.6383 60.0429 31.2252 59.5734 31.5039C59.1185 31.7974 58.5023 31.9441 57.7247 31.9441C56.9471 31.9441 56.3235 31.7974 55.854 31.5039C55.3845 31.2252 54.981 30.6383 54.6435 29.7433L47.1167 9.86981H51.4523L57.7687 26.6401L64.019 9.86981Z" fill="#FA7047"/>
</svg>
