<svg width="67" height="64" viewBox="0 0 67 64" fill="none" xmlns="http://www.w3.org/2000/svg">
<path fill-rule="evenodd" clip-rule="evenodd" d="M23.9935 59.168C22.7717 59.1816 21.6399 58.8828 20.5982 58.2626C18.8734 52.1058 17.2889 45.9218 15.8448 39.7016C10.8768 40.3535 5.897 40.7337 0.905441 40.8333C-0.301929 39.4752 -0.301929 38.1171 0.905441 36.759C6.21751 33.7847 11.3481 30.5387 16.2975 27.0257C17.7312 21.2899 19.165 15.5541 20.5982 9.82282C21.0731 9.36106 21.6014 9.28863 22.1827 9.59647C23.0243 10.3027 23.7034 11.1311 24.2199 12.0864C25.7831 16.2286 27.0656 20.4524 28.0679 24.7622C32.4461 25.0836 36.8224 25.4594 41.1964 25.894C42.2961 27.2702 42.5976 28.7777 42.1019 30.421C38.664 32.2002 35.3443 34.1649 32.1423 36.3063C31.169 36.9446 30.1123 37.3203 28.9733 37.438C27.6813 44.7809 26.0212 52.0243 23.9935 59.168Z" fill="#7B7B7B"/>
<path fill-rule="evenodd" clip-rule="evenodd" d="M51.3047 19.6624C50.8218 19.6678 50.3746 19.5497 49.963 19.3046C49.2814 16.8717 48.6553 14.428 48.0846 11.97C46.1214 12.2276 44.1536 12.3779 42.1811 12.4172C41.704 11.8806 41.704 11.3439 42.1811 10.8072C44.2803 9.63186 46.3076 8.34919 48.2635 6.96098C48.83 4.6944 49.3966 2.42782 49.963 0.163025C50.1506 -0.0194473 50.3594 -0.0480709 50.5891 0.0735779C50.9217 0.352652 51.19 0.680027 51.3941 1.05749C52.0118 2.69437 52.5187 4.36345 52.9147 6.06651C54.6448 6.19353 56.3742 6.34201 58.1026 6.51375C58.5372 7.05758 58.6563 7.6533 58.4604 8.30268C57.1019 9.00573 55.7901 9.78213 54.5248 10.6283C54.1401 10.8805 53.7226 11.029 53.2725 11.0755C52.7619 13.9772 52.1059 16.8395 51.3047 19.6624Z" fill="#7B7B7B"/>
<path fill-rule="evenodd" clip-rule="evenodd" d="M52.6945 63.9997C53.4187 64.0078 54.0896 63.8307 54.7071 63.463C55.7295 59.8134 56.6688 56.1477 57.5248 52.4605C60.4698 52.8469 63.4217 53.0723 66.3805 53.1314C67.0962 52.3263 67.0962 51.5212 66.3805 50.7162C63.2317 48.9531 60.1904 47.029 57.2565 44.9465C56.4066 41.5465 55.5567 38.1464 54.7071 34.7491C54.4256 34.4753 54.1124 34.4324 53.7679 34.6149C53.269 35.0335 52.8665 35.5246 52.5603 36.0908C51.6336 38.5463 50.8734 41.05 50.2793 43.6048C47.684 43.7953 45.0898 44.018 42.497 44.2757C41.8451 45.0915 41.6664 45.9851 41.9603 46.9592C43.9981 48.0138 45.966 49.1785 47.8641 50.4478C48.441 50.8262 49.0674 51.0489 49.7426 51.1187C50.5084 55.4714 51.4925 59.7651 52.6945 63.9997Z" fill="#7B7B7B"/>
<path fill-rule="evenodd" clip-rule="evenodd" d="M22.6345 54.6411C20.8056 48.9144 19.4474 43.1016 18.5601 37.2118C14.0222 37.1983 9.49511 37.3477 4.9789 37.6646C9.7029 34.8985 14.3051 31.9559 18.7865 28.8367C19.8322 24.287 20.964 19.7599 22.1818 15.2555C23.4376 18.5241 24.5694 21.8424 25.5771 25.2151C25.9325 26.0254 26.4603 26.7045 27.1616 27.2523C31.393 27.6552 35.6182 28.1079 39.8374 28.6104C35.5887 31.0007 31.288 33.1873 26.9352 35.1747C25.3 41.6167 23.8663 48.104 22.6345 54.6411Z" fill="#7B7B7B"/>
<path fill-rule="evenodd" clip-rule="evenodd" d="M50.7655 17.8735C50.0428 15.6105 49.5061 13.3135 49.1555 10.9861C47.3623 10.9808 45.5733 11.0398 43.7887 11.165C45.6554 10.072 47.4741 8.90918 49.2449 7.6766C49.6582 5.87872 50.1054 4.08979 50.5866 2.3098C51.0829 3.60141 51.5301 4.9127 51.9283 6.24545C52.0688 6.56567 52.2774 6.83401 52.5545 7.05047C54.2266 7.20969 55.8962 7.38858 57.5635 7.58716C55.8846 8.53171 54.1851 9.39577 52.465 10.1811C51.8189 12.7268 51.2523 15.2903 50.7655 17.8735Z" fill="#7B7B7B"/>
<path fill-rule="evenodd" clip-rule="evenodd" d="M53.5031 61.3159C54.5873 57.9212 55.3924 54.4756 55.9183 50.9843C58.6083 50.9762 61.2919 51.0648 63.969 51.2526C61.1687 49.613 58.4406 47.8687 55.7842 46.0197C55.1643 43.3227 54.4934 40.6392 53.7715 37.969C53.0271 39.9066 52.3562 41.8736 51.7588 43.8728C51.5482 44.3532 51.2353 44.7557 50.8196 45.0804C48.3113 45.3193 45.8067 45.5876 43.3057 45.8855C45.8242 47.3024 48.3735 48.5986 50.9538 49.7767C51.9231 53.5953 52.773 57.4409 53.5031 61.3159Z" fill="#7B7B7B"/>
</svg>
