<svg width="38" height="38" viewBox="0 0 38 38" fill="none" xmlns="http://www.w3.org/2000/svg">
<path d="M9.22363 19.9265L11.9752 25.2324L17.3093 22.0839V15.4189L9.22363 19.9265Z" fill="#0C0C0E"/>
<path d="M31.2361 20.2223C30.4687 23.9094 29.1532 26.7305 27.2932 28.6855C25.4588 30.6405 22.6816 31.6161 18.9653 31.6161C15.4938 31.6161 12.6326 30.4395 10.3743 28.0898C8.1452 25.7402 7.02702 22.7072 7.02702 18.9982C7.02702 15.2892 8.14155 12.2671 10.3743 9.94308C12.322 7.915 14.4586 6.74369 17.3089 6.46597V0C14.4659 0.190018 12.0662 1.00491 9.59227 2.36793C6.71641 3.9502 4.39965 6.2158 2.63833 9.16108C0.880661 12.0808 0 15.3623 0 18.9982C0 22.6341 0.880661 25.9265 2.63833 28.8718C4.39965 31.7915 6.71641 34.0425 9.59227 35.6248C12.4681 37.207 15.5925 38 18.9616 38C24.1689 38 28.5429 36.4031 32.0875 33.213C35.6577 29.9973 37.6273 25.9521 38 21.0774L31.2324 20.2223H31.2361Z" fill="#0C0C0E"/>
<path d="M19.4978 0V6.36649C21.2993 6.39207 22.5213 6.71641 23.6504 7.23166C24.8417 7.77613 26.0549 8.66776 27.2937 9.90287L19.4978 14.3246V21.089L36.6667 11.5765C32.9686 3.94653 27.4091 0.0913549 19.4978 0Z" fill="#0C0C0E"/>
</svg>
